<svg version="1.2" xmlns="http://www.w3.org/2000/svg" viewBox="0 0 190 90" width="250" height="118">
	<title>Applied Science, Engineering and Management</title>
	<defs>
		<clipPath clipPathUnits="userSpaceOnUse" id="cp1">
			<path d="m30 10h102.56v71h-102.56z"/>
		</clipPath>
		<clipPath clipPathUnits="userSpaceOnUse" id="cp2">
			<path d="m10.31 1.02h54.69v88.95h-54.69z"/>
		</clipPath>
	</defs>
	<style>
		.s0 { fill: #07416b } 
		.s1 { fill: #00adef } 
	</style>
	<path class="s0" d="m66.4 68.4q-0.7 0-1.4 0c-12.7 0-22.9-10.2-22.9-22.9 0-12.7 10.2-23 22.9-23q0.7 0 1.4 0.1c-12 0.7-21.6 10.7-21.6 22.9 0 12.2 9.6 22.2 21.6 22.9z"/>
	<g id="Clip-Path" clip-path="url(#cp1)">
		<g>
			<path class="s1" d="m84 25.7c-4.8-4.5-11.3-7.3-18.5-7.3-14.7 0-26.7 11.7-27.1 26.4q0 0.3 0 0.7c0 15 12.1 27.1 27.1 27.1 7.2 0 13.7-2.8 18.5-7.3h26l-17.9 3.1c-6.5 7.4-16 12.1-26.6 12.1-19.4 0-35.1-15.6-35.1-35 0-19.4 15.7-35.1 35.1-35.1 10.6 0 20.1 4.8 26.6 12.2l40.5 3.1z"/>
		</g>
	</g>
	<path class="s0" d="m90.8 72.4c-2.6 3.5-5.7 6.6-9.2 9.2q-0.2-0.1-0.3-0.2l-2.8-1.3c4.5-1.7 8.8-4.3 12.3-7.7z"/>
	<g id="Clip-Path" clip-path="url(#cp2)">
		<g>
			<path class="s0" d="m28.5 45.5c0 20 16.1 36.4 36 37l-2.5 6.9q-0.1 0.2-0.1 0.3-3.4 0.6-6.8 0.6-3.5 0-6.8-0.6-0.1-0.1-0.1-0.3l-2.5-7c-1.5-4.1-6.1-6-10.1-4.2l-6.7 3.2q-0.2 0.1-0.3 0.2c-3.7-2.7-6.9-6-9.6-9.6q0.1-0.2 0.1-0.3l3.2-6.8c1.9-3.9 0-8.6-4.1-10l-7.1-2.5q-0.1-0.1-0.3-0.1-0.5-3.4-0.5-6.8 0-3.5 0.5-6.8 0.2-0.1 0.3-0.1l7.1-2.5c4.1-1.5 6-6.1 4.1-10.1l-3.2-6.7q0-0.1-0.1-0.3c2.7-3.7 5.9-6.9 9.6-9.6q0.1 0.1 0.3 0.1l6.7 3.2c4 1.9 8.6 0 10.1-4.1l2.5-7q0-0.2 0.1-0.4 3.3-0.5 6.8-0.5 3.4 0 6.8 0.5 0 0.2 0.1 0.4l2.5 6.9c-19.9 0.6-36 16.9-36 37z"/>
		</g>
	</g>
	<path class="s0" d="m78.5 10.9l2.8-1.4q0.1 0 0.3-0.1c3.5 2.6 6.6 5.7 9.2 9.2-3.5-3.4-7.8-6-12.3-7.7z"/>
	<g>
		<g>
			<g>
				<path class="s0" d="m70.2 57.1h-12v-4.6h3v-14h-3v-4.7h12v4.7h-3v14h3z"/>
			</g>
		</g>
	</g>
	<g>
		<g>
			<g>
				<path class="s0" d="m91.3 56.8q-7.5 0.7-12.4 0.7-3.3 0-4.8-1.6-1.5-1.5-1.5-4.8v-10.6q0-3.5 1.5-5.1 1.6-1.6 5.2-1.6h12v4.7h-10.7q-2 0-2 2v10.6q0 0.8 0.4 1.3 0.5 0.4 1.2 0.4 0.7 0 1.5 0 0.9 0 1.7-0.1 0.9 0 1.9 0 0.9-0.1 2.3-0.1 1.5-0.2 3.7-0.3z"/>
			</g>
		</g>
	</g>
	<g>
		<g>
			<g>
				<path class="s0" d="m98.1 57.1h-6.5l8.8-23.3h6.7l8.9 23.3h-6.6l-1.5-4.1h-8.3zm3-8.5h5.3l-2.6-7.9z"/>
			</g>
		</g>
	</g>
	<g>
		<g>
			<g>
				<path class="s0" d="m116.9 52.3q9.2 0.5 12.4 0.5 0.8 0 1.2-0.4 0.5-0.5 0.5-1.3v-3h-7.7q-3.5 0-5.1-1.5-1.6-1.6-1.6-5.1v-1q0-3.5 1.6-5.1 1.6-1.6 5.1-1.6h11.7v4.7h-10.4q-2 0-2 2v0.6q0 2 2 2h6q3.3 0 4.9 1.6 1.5 1.5 1.5 4.8v1.6q0 3.3-1.5 4.8-1.6 1.6-4.9 1.6-1.7 0-3.5-0.1l-3.1-0.1q-3.4-0.2-7.1-0.5z"/>
			</g>
		</g>
	</g>
	<g>
		<g>
			<g>
				<path class="s0" d="m158.5 57.1h-18.5v-23.3h18.5v4.7h-12.5v4.5h9.8v4.6h-9.8v4.9h12.5z"/>
			</g>
		</g>
	</g>
	<g>
		<g>
			<g>
				<path class="s0" d="m181.2 44.1l-4.7 8.4h-4.6l-4.7-8.4v13h-6v-23.3h6.3l6.7 12.3 6.7-12.3h6.3v23.3h-6z"/>
			</g>
		</g>
	</g>
</svg>